<svg width="56" height="56" viewBox="0 0 56 56" fill="none" xmlns="http://www.w3.org/2000/svg">
<g clip-path="url(#clip0_1_61)">
<rect width="56" height="56" fill="#192335"/>
<circle opacity="0.1" cx="28.0016" cy="18.4801" r="8.4" fill="white"/>
<path fillRule="evenodd" clipRule="evenodd" d="M12.6001 8.08899C11.2905 10.7853 10.5345 23.2838 10.1838 29.0809C10.1441 29.7375 10.1096 30.3082 10.0801 30.7689H16.2401C15.9596 26.3941 14.7669 12.1026 13.3716 8.43405C16.2474 8.68877 19.2632 10.0101 22.8792 13.2221C24.6824 14.8239 26.36 16.8991 27.688 19.5533C26.23 22.5551 25.2103 26.29 24.9201 30.8177H31.0801C30.7898 26.29 29.7703 22.5551 28.3123 19.5533C29.6403 16.8991 31.3178 14.8239 33.1211 13.2221C36.7657 9.98468 39.8184 8.66796 42.6968 8.4282C41.475 11.7022 40.7615 23.4984 40.4238 29.0807C40.3841 29.7374 40.3496 30.3082 40.3201 30.7689H46.4801C46.1898 26.2411 44.9224 11.0908 43.4644 8.08899C43.3316 7.87273 43.2083 7.82333 43.107 7.84423L43.1068 7.84013C40.1081 7.98292 36.6858 9.30665 32.7492 12.8035C30.9752 14.3792 29.3276 16.3934 28.0001 18.9338C26.6727 16.3934 25.025 14.3792 23.2511 12.8035C19.3362 9.32591 15.9422 7.99757 12.9432 7.84259C12.9271 7.83997 12.9115 7.83929 12.8964 7.84026L12.8935 7.84013C12.7174 7.85386 12.6001 8.08899 12.6001 8.08899ZM15.6393 30.191H10.681C10.7458 29.3724 10.8234 28.1008 10.9167 26.5727C11.2785 20.643 11.876 10.8513 12.8801 8.67985C14.143 11.4109 15.3227 26.1957 15.6393 30.191ZM28.0001 20.2021C29.263 22.9331 30.1627 26.2445 30.4793 30.2399H25.521C25.8375 26.2445 26.7373 22.9331 28.0001 20.2021ZM40.921 30.191H45.8793C45.5627 26.1957 44.383 11.4109 43.1201 8.67985C42.116 10.8513 41.5185 20.6427 41.1567 26.5725C41.0634 28.1004 40.9858 29.3725 40.921 30.191Z" fill="white" stroke="white" stroke-width="0.56"/>
<path d="M21.6673 46.3379H16.8668V45.7943C17.0403 45.7892 17.2624 45.7713 17.5329 45.7407C17.8085 45.7101 17.9974 45.6667 18.0995 45.6105C18.2577 45.5136 18.3725 45.4038 18.444 45.2813C18.5206 45.1537 18.5588 44.9955 18.5588 44.8066V36.9054H18.444L14.7384 46.1618H14.3556L10.826 36.714H10.7265V43.1988C10.7265 43.8266 10.7648 44.3039 10.8413 44.6305C10.923 44.9572 11.0455 45.192 11.2088 45.3349C11.3211 45.4421 11.5534 45.5442 11.9056 45.6412C12.2577 45.7382 12.4874 45.7892 12.5946 45.7943V46.3379H8.20759V45.7943C8.43728 45.7739 8.67717 45.7356 8.92728 45.6795C9.18248 45.6233 9.37899 45.5391 9.51681 45.4268C9.69545 45.2839 9.81795 45.0644 9.88431 44.7684C9.95066 44.4723 9.98384 43.9772 9.98384 43.283V37.7246C9.98384 37.403 9.94556 37.1402 9.86899 36.936C9.79243 36.7318 9.68269 36.566 9.53978 36.4384C9.38155 36.3005 9.18759 36.1985 8.9579 36.1321C8.72821 36.0658 8.50108 36.0275 8.27649 36.0173V35.4737H11.9821L15.0906 43.6199L17.7473 36.8059C17.8443 36.5558 17.9259 36.2954 17.9923 36.0249C18.0637 35.7493 18.102 35.5655 18.1071 35.4737H21.652V36.0173C21.509 36.0224 21.3253 36.0453 21.1007 36.0862C20.8812 36.127 20.7205 36.1653 20.6184 36.201C20.4448 36.2623 20.3274 36.3643 20.2662 36.5073C20.2049 36.6502 20.1743 36.8059 20.1743 36.9743V44.8066C20.1743 44.9853 20.2049 45.1359 20.2662 45.2584C20.3274 45.3809 20.4448 45.488 20.6184 45.5799C20.7102 45.631 20.8736 45.6795 21.1084 45.7254C21.3432 45.7662 21.5295 45.7892 21.6673 45.7943V46.3379ZM32.1377 41.3537C32.3674 41.6089 32.5359 41.8896 32.6431 42.1959C32.7553 42.497 32.8115 42.8492 32.8115 43.2524C32.8115 44.212 32.4568 45.0032 31.7473 45.6259C31.0378 46.2486 30.1573 46.5599 29.1059 46.5599C28.621 46.5599 28.1361 46.4859 27.6512 46.3379C27.1663 46.1848 26.7477 46.001 26.3956 45.7866L26.0663 46.3455H25.4538L25.3467 42.6246H25.9668C26.0944 43.084 26.2424 43.5 26.4109 43.8726C26.5844 44.2401 26.8115 44.5846 27.0923 44.9062C27.3577 45.2073 27.6665 45.4472 28.0187 45.6259C28.376 45.8045 28.7894 45.8938 29.259 45.8938C29.6112 45.8938 29.9174 45.8479 30.1777 45.756C30.4432 45.6641 30.6575 45.534 30.8209 45.3655C30.9842 45.1971 31.1042 45.0006 31.1807 44.776C31.2624 44.5463 31.3032 44.2835 31.3032 43.9874C31.3032 43.5536 31.1807 43.1503 30.9357 42.7777C30.6907 42.4 30.3258 42.1142 29.8409 41.9202C29.5091 41.7875 29.1288 41.6421 28.7001 41.4838C28.2713 41.3205 27.9013 41.1674 27.5899 41.0245C26.9774 40.7488 26.5002 40.389 26.1582 39.9449C25.8213 39.4958 25.6529 38.9113 25.6529 38.1916C25.6529 37.7782 25.7371 37.3928 25.9056 37.0355C26.074 36.6783 26.3139 36.3592 26.6252 36.0785C26.9213 35.8131 27.2709 35.6064 27.6742 35.4584C28.0774 35.3052 28.4985 35.2287 28.9374 35.2287C29.4376 35.2287 29.8843 35.3052 30.2773 35.4584C30.6754 35.6115 31.0378 35.7901 31.3645 35.9943L31.6784 35.4737H32.2909L32.3521 39.0798H31.732C31.6197 38.6663 31.4921 38.2708 31.3492 37.893C31.2113 37.5153 31.0301 37.1734 30.8056 36.8671C30.5861 36.5711 30.3181 36.3363 30.0017 36.1627C29.6852 35.9841 29.2973 35.8948 28.8379 35.8948C28.353 35.8948 27.9396 36.0504 27.5976 36.3618C27.2556 36.6732 27.0846 37.0534 27.0846 37.5026C27.0846 37.9722 27.1944 38.3626 27.4138 38.674C27.6333 38.9802 27.9523 39.2329 28.3709 39.432C28.7435 39.6106 29.1084 39.7663 29.4657 39.899C29.8281 40.0266 30.1777 40.1644 30.5146 40.3124C30.8209 40.4451 31.1144 40.5957 31.3951 40.7641C31.6809 40.9326 31.9285 41.1291 32.1377 41.3537ZM44.8515 38.1916H44.2773C44.1701 37.7884 43.9455 37.3571 43.6035 36.8977C43.2667 36.4384 42.9425 36.1857 42.6312 36.1398C42.473 36.1193 42.2841 36.104 42.0646 36.0938C41.8502 36.0836 41.6052 36.0785 41.3296 36.0785H39.5074V40.4426H40.7554C41.1331 40.4426 41.4266 40.4043 41.6359 40.3277C41.8451 40.2461 42.0238 40.1236 42.1718 39.9602C42.2739 39.8479 42.3658 39.6744 42.4474 39.4396C42.5342 39.1997 42.5903 38.9445 42.6159 38.674H43.1977V42.9385H42.6159C42.6006 42.7139 42.547 42.4587 42.4551 42.1729C42.3683 41.8871 42.2739 41.6803 42.1718 41.5527C42.0187 41.3639 41.8247 41.2363 41.5899 41.1699C41.3602 41.0985 41.0821 41.0627 40.7554 41.0627H39.5074V44.8066C39.5074 44.9751 39.5406 45.1257 39.607 45.2584C39.6733 45.3911 39.7907 45.4983 39.9592 45.5799C40.0357 45.6157 40.2016 45.659 40.4568 45.7101C40.712 45.7611 40.906 45.7892 41.0387 45.7943V46.3379H36.3301V45.7943C36.4832 45.7841 36.6874 45.7688 36.9426 45.7484C37.1978 45.7228 37.3637 45.6922 37.4402 45.6565C37.5934 45.5901 37.7031 45.4932 37.7695 45.3655C37.8409 45.2328 37.8766 45.0746 37.8766 44.8909V37.0509C37.8766 36.8824 37.8486 36.7344 37.7924 36.6068C37.7363 36.4741 37.6189 36.3669 37.4402 36.2852C37.3024 36.2189 37.1161 36.1602 36.8813 36.1091C36.6516 36.0581 36.4679 36.0275 36.3301 36.0173V35.4737H44.8515V38.1916Z" fill="white"/>
</g>
<defs>
<clipPath id="clip0_1_61">
<rect width="56" height="56" fill="white"/>
</clipPath>
</defs>
</svg>
